<?xml version="1.0" encoding="UTF-8"?>
<svg id="a" data-name="Layer 1" xmlns="http://www.w3.org/2000/svg" viewBox="0 0 1755 1920">
  <defs>
    <style>
      .b {
        fill: #fff;
      }
    </style>
  </defs>
  <path class="b" d="M877.5,1919.44c-3.92-1.97-58.18-29.45-136.87-77.76-75.04-46.08-188.28-121.06-301.58-216.64-127.33-107.42-228.78-218.41-301.53-329.91C46.6,1155.79.5,1015.28.5,877.5c0-118.39,23.19-233.25,68.92-341.37,44.17-104.43,107.41-198.22,187.95-278.77,80.54-80.54,174.33-143.78,278.77-187.95C644.25,23.69,759.11.5,877.5.5s233.25,23.19,341.37,68.92c104.43,44.17,198.22,107.41,278.76,187.95,80.54,80.54,143.78,174.33,187.95,278.77,45.73,108.12,68.92,222.97,68.92,341.37,0,137.78-46.1,278.29-137.02,417.63-72.75,111.5-174.21,222.49-301.53,329.91-113.3,95.58-226.53,170.56-301.58,216.64-78.69,48.31-132.95,75.79-136.87,77.76Z"/>
  <path d="M877.5,1c59.47,0,118.9,5.99,176.65,17.81,56.28,11.52,111.63,28.7,164.53,51.07,51.94,21.97,102.03,49.16,148.89,80.81,46.41,31.36,90.06,67.37,129.72,107.03,39.66,39.66,75.67,83.31,107.03,129.72,31.66,46.86,58.85,96.95,80.81,148.89,22.37,52.9,39.56,108.25,51.07,164.53,11.82,57.74,17.81,117.18,17.81,176.65,0,71.96-12.67,145.31-37.65,218.02-22.72,66.11-56.12,133.18-99.29,199.33-72.73,111.45-174.14,222.41-301.43,329.8-113.27,95.56-226.49,170.53-301.52,216.6-77.43,47.54-131.2,74.9-136.62,77.64-5.42-2.73-59.19-30.1-136.62-77.64-75.03-46.07-188.24-121.04-301.51-216.6-127.29-107.38-228.7-218.34-301.43-329.8-43.17-66.15-76.57-133.22-99.29-199.33C13.67,1022.81,1,949.46,1,877.5c0-59.47,5.99-118.9,17.81-176.65,11.52-56.28,28.7-111.63,51.07-164.53,21.97-51.94,49.16-102.03,80.81-148.89,31.36-46.41,67.37-90.06,107.03-129.72,39.66-39.66,83.31-75.67,129.72-107.03,46.86-31.66,96.95-58.85,148.89-80.81,52.9-22.37,108.25-39.56,164.53-51.07,57.74-11.82,117.18-17.81,176.65-17.81M877.5,0C392.87,0,0,392.87,0,877.5c0,604.5,877.5,1042.5,877.5,1042.5,0,0,877.5-438,877.5-1042.5C1755,392.87,1362.13,0,877.5,0h0Z"/>
</svg>