<?xml version="1.0" encoding="UTF-8"?>
<svg id="a" data-name="Layer 1" xmlns="http://www.w3.org/2000/svg" viewBox="0 0 1783.38 1919.55">
  <defs>
    <style>
      .b {
        fill: #fff;
      }
    </style>
  </defs>
  <path class="b" d="M891.69,1919.01c-3.54-1.35-58.81-22.61-139.12-63.28-76.25-38.62-191.32-103.14-306.44-191.21-129.38-98.97-232.46-206.9-306.39-320.78C47.35,1201.41.5,1049.32.5,891.69c0-120.31,23.56-237.02,70.03-346.89,44.89-106.12,109.14-201.43,190.99-283.28,81.85-81.85,177.15-146.1,283.28-190.99C654.67,24.06,771.38.5,891.69.5s237.02,23.56,346.89,70.03c106.12,44.89,201.43,109.14,283.28,190.99s146.1,177.15,190.99,283.28c46.47,109.87,70.03,226.58,70.03,346.89,0,157.63-46.85,309.72-139.24,452.05-73.93,113.88-177.01,221.81-306.39,320.78-115.12,88.07-230.19,152.59-306.44,191.21-80.31,40.68-135.58,61.93-139.12,63.28Z"/>
  <path d="M891.69,1c60.43,0,120.83,6.09,179.51,18.1,57.19,11.7,113.44,29.16,167.19,51.9,52.78,22.32,103.68,49.95,151.3,82.12,47.16,31.86,91.51,68.46,131.82,108.76,40.31,40.31,76.9,84.66,108.76,131.82,32.17,47.62,59.8,98.52,82.12,151.3,22.74,53.75,40.2,110,51.9,167.19,12.01,58.68,18.1,119.07,18.1,179.51,0,82.34-12.87,163.89-38.26,242.38-23.08,71.36-57.03,141.81-100.89,209.38-73.89,113.83-176.93,221.72-306.26,320.65-50.82,38.88-105.87,76.45-163.61,111.67-46.2,28.18-94.23,54.93-142.74,79.5-79.19,40.11-134.03,61.33-138.92,63.2-4.89-1.87-59.73-23.1-138.92-63.2-48.51-24.57-96.54-51.32-142.74-79.5-57.75-35.22-112.8-72.79-163.61-111.67-129.33-98.94-232.37-206.82-306.26-320.65-43.86-67.57-77.81-138.02-100.89-209.38C13.87,1055.58,1,974.03,1,891.69c0-60.43,6.09-120.83,18.1-179.51,11.7-57.19,29.16-113.44,51.9-167.19,22.32-52.78,49.95-103.68,82.12-151.3,31.86-47.16,68.46-91.51,108.76-131.82s84.66-76.9,131.82-108.76c47.62-32.17,98.52-59.8,151.3-82.12,53.75-22.74,110-40.2,167.19-51.9,58.68-12.01,119.07-18.1,179.51-18.1M891.69,0C399.22,0,0,399.22,0,891.69c0,691.5,891.69,1027.86,891.69,1027.86,0,0,891.69-336.35,891.69-1027.86C1783.38,399.22,1384.16,0,891.69,0h0Z"/>
</svg>